<svg width="48" height="48" viewBox="0 0 48 48" fill="none" xmlns="http://www.w3.org/2000/svg">
<path d="M24.15 34C24.5833 34 24.9417 33.8583 25.225 33.575C25.5083 33.2917 25.65 32.9333 25.65 32.5V25.7H32.55C32.95 25.7 33.2917 25.5583 33.575 25.275C33.8583 24.9917 34 24.6333 34 24.2C34 23.7667 33.8583 23.4083 33.575 23.125C33.2917 22.8417 32.9333 22.7 32.5 22.7H25.65V15.45C25.65 15.05 25.5083 14.7083 25.225 14.425C24.9417 14.1417 24.5833 14 24.15 14C23.7167 14 23.3583 14.1417 23.075 14.425C22.7917 14.7083 22.65 15.0667 22.65 15.5V22.7H15.45C15.05 22.7 14.7083 22.8417 14.425 23.125C14.1417 23.4083 14 23.7667 14 24.2C14 24.6333 14.1417 24.9917 14.425 25.275C14.7083 25.5583 15.0667 25.7 15.5 25.7H22.65V32.55C22.65 32.95 22.7917 33.2917 23.075 33.575C23.3583 33.8583 23.7167 34 24.15 34ZM24 44C21.1667 44 18.5333 43.4917 16.1 42.475C13.6667 41.4583 11.55 40.05 9.75 38.25C7.95 36.45 6.54167 34.3333 5.525 31.9C4.50833 29.4667 4 26.8333 4 24C4 21.2 4.50833 18.5833 5.525 16.15C6.54167 13.7167 7.95 11.6 9.75 9.8C11.55 8 13.6667 6.58333 16.1 5.55C18.5333 4.51667 21.1667 4 24 4C26.8 4 29.4167 4.51667 31.85 5.55C34.2833 6.58333 36.4 8 38.2 9.8C40 11.6 41.4167 13.7167 42.45 16.15C43.4833 18.5833 44 21.2 44 24C44 26.8333 43.4833 29.4667 42.45 31.9C41.4167 34.3333 40 36.45 38.2 38.25C36.4 40.05 34.2833 41.4583 31.85 42.475C29.4167 43.4917 26.8 44 24 44ZM24 41C28.6667 41 32.6667 39.3333 36 36C39.3333 32.6667 41 28.6667 41 24C41 19.3333 39.3333 15.3333 36 12C32.6667 8.66667 28.6667 7 24 7C19.3333 7 15.3333 8.66667 12 12C8.66667 15.3333 7 19.3333 7 24C7 28.6667 8.66667 32.6667 12 36C15.3333 39.3333 19.3333 41 24 41Z" fill="currentColor"/>
</svg>
