<svg width="48" height="48" viewBox="0 0 48 48" fill="none" xmlns="http://www.w3.org/2000/svg">
<path d="M25.5 18V7.5C25.5 7.06667 25.6417 6.70833 25.925 6.425C26.2083 6.14167 26.5667 6 27 6H40.5C40.9333 6 41.2917 6.14167 41.575 6.425C41.8583 6.70833 42 7.06667 42 7.5V18C42 18.4333 41.8583 18.7917 41.575 19.075C41.2917 19.3583 40.9333 19.5 40.5 19.5H27C26.5667 19.5 26.2083 19.3583 25.925 19.075C25.6417 18.7917 25.5 18.4333 25.5 18ZM6 24V7.5C6 7.06667 6.14167 6.70833 6.425 6.425C6.70833 6.14167 7.06667 6 7.5 6H21C21.4333 6 21.7917 6.14167 22.075 6.425C22.3583 6.70833 22.5 7.06667 22.5 7.5V24C22.5 24.4333 22.3583 24.7917 22.075 25.075C21.7917 25.3583 21.4333 25.5 21 25.5H7.5C7.06667 25.5 6.70833 25.3583 6.425 25.075C6.14167 24.7917 6 24.4333 6 24ZM25.5 40.5V24C25.5 23.5667 25.6417 23.2083 25.925 22.925C26.2083 22.6417 26.5667 22.5 27 22.5H40.5C40.9333 22.5 41.2917 22.6417 41.575 22.925C41.8583 23.2083 42 23.5667 42 24V40.5C42 40.9333 41.8583 41.2917 41.575 41.575C41.2917 41.8583 40.9333 42 40.5 42H27C26.5667 42 26.2083 41.8583 25.925 41.575C25.6417 41.2917 25.5 40.9333 25.5 40.5ZM6 40.5V30C6 29.5667 6.14167 29.2083 6.425 28.925C6.70833 28.6417 7.06667 28.5 7.5 28.5H21C21.4333 28.5 21.7917 28.6417 22.075 28.925C22.3583 29.2083 22.5 29.5667 22.5 30V40.5C22.5 40.9333 22.3583 41.2917 22.075 41.575C21.7917 41.8583 21.4333 42 21 42H7.5C7.06667 42 6.70833 41.8583 6.425 41.575C6.14167 41.2917 6 40.9333 6 40.5ZM9 22.5H19.5V9H9V22.5ZM28.5 39H39V25.5H28.5V39ZM28.5 16.5H39V9H28.5V16.5ZM9 39H19.5V31.5H9V39Z" fill="currentColor"/>
</svg>
