<svg width="48" height="48" viewBox="0 0 48 48" fill="none" xmlns="http://www.w3.org/2000/svg">
<path d="M24 3C12.4031 3 3 12.4031 3 24C3 35.5969 12.4031 45 24 45C35.5969 45 45 35.5969 45 24C45 12.4031 35.5969 3 24 3ZM31.8281 32.7C29.925 34.4531 27.3281 35.4844 24.2297 35.4844C19.7438 35.4844 15.8625 32.9109 13.9734 29.1609C13.1953 27.6094 12.75 25.8562 12.75 24C12.75 22.1438 13.1953 20.3906 13.9734 18.8391C15.8625 15.0844 19.7438 12.5109 24.2297 12.5109C27.3234 12.5109 29.9203 13.65 31.9125 15.5016L28.6219 18.7969C27.4312 17.6578 25.9172 17.0812 24.2344 17.0812C21.2438 17.0812 18.7125 19.1016 17.8078 21.8156C17.5781 22.5047 17.4469 23.2406 17.4469 24C17.4469 24.7594 17.5781 25.4953 17.8078 26.1844C18.7125 28.8984 21.2438 30.9187 24.2297 30.9187C25.7766 30.9187 27.0891 30.5109 28.1156 29.8219C29.3344 29.0063 30.1406 27.7922 30.4078 26.3531H24.2297V21.9094H35.0437C35.1797 22.6641 35.25 23.4469 35.25 24.2578C35.25 27.7594 33.9984 30.6984 31.8281 32.7V32.7Z" fill="#444746"/>
</svg>
