<svg width="55" height="63" viewBox="0 0 55 63" fill="none" xmlns="http://www.w3.org/2000/svg">
<rect y="35.219" width="38.8909" height="38.8909" rx="10.9225" transform="rotate(-45 0 35.219)" fill="#212226"/>
<rect y="27.5" width="38.8909" height="38.8909" rx="10.9225" transform="rotate(-45 0 27.5)" fill="#3DD598"/>
<rect x="7.7782" y="28.9175" width="7.77817" height="7.77817" rx="2.73064" transform="rotate(-45 7.7782 28.9175)" fill="white"/>
<rect x="14.7786" y="35.5291" width="7.77817" height="7.77817" rx="2.73064" transform="rotate(-45 14.7786 35.5291)" fill="white"/>
<rect x="21.7789" y="42.1404" width="7.77817" height="7.77817" rx="2.73064" transform="rotate(-45 21.7789 42.1404)" fill="white"/>
<rect x="16.3342" y="23.4077" width="17.5857" height="3.88909" rx="1.63838" transform="rotate(-45 16.3342 23.4077)" fill="white"/>
<rect x="23.3346" y="30.019" width="17.5857" height="3.88909" rx="1.63838" transform="rotate(-45 23.3346 30.019)" fill="white"/>
<g clip-path="url(#clip0_3832_12780)">
<path d="M42.1984 31.6L38.6131 31.5897C38.3977 31.5891 38.2226 31.414 38.222 31.1986L38.2197 30.4185C38.2191 30.2031 38.3932 30.029 38.6086 30.0296L41.0238 30.0365L41.009 24.8634C41.0084 24.648 41.1825 24.4739 41.3979 24.4745L42.178 24.4768C42.3934 24.4774 42.5685 24.6525 42.5691 24.8679L42.5873 31.2111C42.5879 31.4265 42.4138 31.6006 42.1984 31.6V31.6Z" fill="white"/>
</g>
<defs>
<clipPath id="clip0_3832_12780">
<rect width="9.72272" height="9.72272" fill="white" transform="translate(34.2239 28.7366) rotate(-45)"/>
</clipPath>
</defs>
</svg>
