<svg width="48" height="48" viewBox="0 0 48 48" fill="none" xmlns="http://www.w3.org/2000/svg">
<path d="M24 42.0002C19 42.0002 14.75 40.2502 11.25 36.7502C7.75 33.2502 6 29.0002 6 24.0002C6 19.5002 7.325 15.6836 9.975 12.5502C12.625 9.41689 16.1 7.40022 20.4 6.50022C21.7667 6.23355 22.7 6.46689 23.2 7.20022C23.7 7.93355 23.6833 8.93355 23.15 10.2002C22.85 10.9669 22.6167 11.7502 22.45 12.5502C22.2833 13.3502 22.2 14.1669 22.2 15.0002C22.2 18.0002 23.25 20.5502 25.35 22.6502C27.45 24.7502 30 25.8002 33 25.8002C33.8333 25.8002 34.6417 25.7252 35.425 25.5752C36.2083 25.4252 36.9667 25.2169 37.7 24.9502C39.1333 24.4169 40.2 24.4419 40.9 25.0252C41.6 25.6086 41.7833 26.6002 41.45 28.0002C40.55 32.0336 38.5333 35.3752 35.4 38.0252C32.2667 40.6752 28.4667 42.0002 24 42.0002ZM24 39.0002C27.6333 39.0002 30.8 37.8752 33.5 35.6252C36.2 33.3752 37.8833 30.7336 38.55 27.7002C37.7167 28.0669 36.825 28.3419 35.875 28.5252C34.925 28.7086 33.9667 28.8002 33 28.8002C29.1667 28.8002 25.9083 27.4586 23.225 24.7752C20.5417 22.0919 19.2 18.8336 19.2 15.0002C19.2 14.2002 19.2833 13.3419 19.45 12.4252C19.6167 11.5086 19.9167 10.4669 20.35 9.30022C17.0833 10.2002 14.375 12.0252 12.225 14.7752C10.075 17.5252 9 20.6002 9 24.0002C9 28.1669 10.4583 31.7086 13.375 34.6252C16.2917 37.5419 19.8333 39.0002 24 39.0002Z" fill="currentColor"/>
</svg>
